<?xml version="1.0" encoding="utf-8"?>
<!-- Generator: Adobe Illustrator 22.1.0, SVG Export Plug-In . SVG Version: 6.00 Build 0)  -->
<svg version="1.0"
	 id="svg3070" inkscape:version="0.48.0 r9654" sodipodi:docname="New document 4" xmlns:cc="http://creativecommons.org/ns#" xmlns:dc="http://purl.org/dc/elements/1.1/" xmlns:inkscape="http://www.inkscape.org/namespaces/inkscape" xmlns:rdf="http://www.w3.org/1999/02/22-rdf-syntax-ns#" xmlns:sodipodi="http://sodipodi.sourceforge.net/DTD/sodipodi-0.dtd" xmlns:svg="http://www.w3.org/2000/svg"
	 xmlns="http://www.w3.org/2000/svg" xmlns:xlink="http://www.w3.org/1999/xlink" x="0px" y="0px" viewBox="0 0 291 79.5"
	 style="enable-background:new 0 0 291 79.5;" xml:space="preserve">
<style type="text/css">
	.st0{fill:#C422FF;}
	.st1{fill:#FFFFFF;}
	.st2{fill:#D3D3D3;}
</style>
<sodipodi:namedview  bordercolor="#666666" borderopacity="1.0" fit-margin-bottom="0" fit-margin-left="0" fit-margin-right="0" fit-margin-top="0" id="base" inkscape:current-layer="layer1" inkscape:cx="142.93233" inkscape:cy="33.703355" inkscape:document-units="px" inkscape:pageopacity="0.0" inkscape:pageshadow="2" inkscape:window-height="750" inkscape:window-maximized="1" inkscape:window-width="1280" inkscape:window-x="-8" inkscape:window-y="-8" inkscape:zoom="2.8" pagecolor="#ffffff" showgrid="false">
	</sodipodi:namedview>
<g id="layer1" transform="translate(-200.55198,-393.96227)" inkscape:groupmode="layer" inkscape:label="Layer 1">
	<g id="g3019" transform="matrix(1.018827,0,0,-1.018827,170.5996,498.03288)">
		<path id="path14" inkscape:connector-curvature="0" class="st0" d="M34.3,96.5c0,2.6,2.2,4.7,4.9,4.7h56c2.7,0,4.9-2.1,4.9-4.7
			V39.8c0-2.6-2.2-4.7-4.9-4.7h-56c-2.7,0-4.9,2.1-4.9,4.7V96.5z"/>
		<path id="path28" inkscape:connector-curvature="0" class="st1" d="M54.2,45.8v29.9h-9.9V45.8H54.2z M49.2,79.8
			c3.5,0,5.6,2.3,5.6,5.2c-0.1,2.9-2.2,5.2-5.6,5.2c-3.4,0-5.6-2.2-5.6-5.2C43.7,82.1,45.8,79.8,49.2,79.8L49.2,79.8L49.2,79.8z"/>
		<path id="path30" inkscape:connector-curvature="0" class="st1" d="M59.7,45.8h9.9v16.7c0,0.9,0.1,1.8,0.3,2.4
			c0.7,1.8,2.4,3.6,5.1,3.6c3.6,0,5-2.7,5-6.8v-16H90V63c0,9.2-4.9,13.4-11.4,13.4c-5.4,0-7.7-3-9-5h0.1v4.3h-9.9
			C59.8,72.9,59.7,45.8,59.7,45.8L59.7,45.8z"/>
	</g>
</g>
<g>
	<path class="st2" d="M103.8,28.7c2.4,0.4,4.6,3.8,2.8,7.6c-1.5,3.1-5,8.4-6.6,12.1c-1.9,4.1-1.4,7.5,1.1,7.3
		c2.9-0.1,6.4-4.8,9.1-9.8c0.4-0.6,0.9-0.6,1.2-0.1c0.5,0.8,0.4,2.4-0.6,4.5c-1.9,4-6.4,7.6-10.5,7.6c-6.1,0-7.5-4.4-5.4-10.6
		c2.4-7,8.6-14.5,7.3-15.1c-0.7-0.3-4.8,1.7-9.4,6.7c-4.2,4.6-7.3,11.4-10.4,18.1c-0.3,0.6-0.7,0.9-1.4,0.3
		c-1.4-1.4-1.9-3.8-0.7-7.3c1.4-4.5,6.9-14.4,11.4-21c0.5-0.8,1.1-0.7,1.5,0c1.1,1.8,1,4.2,0.2,6.8C96.6,32.2,101.4,28.3,103.8,28.7
		z"/>
	<path class="st2" d="M119.1,55.7c5.9,0.3,11.1-5.4,14.2-10.1c0.4-0.6,0.9-0.6,1.2,0.1c0.3,0.6,0.1,2.6-1.2,4.4
		c-3,4.3-8.5,7.6-14,7.7c-9.1,0.1-12.2-8.8-7.6-18c4.6-9.2,11.9-12.9,15.5-10.8c1.8,1.1,3.1,2.1,4.2,3.7c1.3,1.7,0.7,6.1-2.3,9.7
		c-3.5,4.3-8.3,6.1-13.3,2.1C113.6,51,115.3,55.4,119.1,55.7z M125,39.3c2.3-3,3.8-6.7,2.9-7.5c-1.5-1.2-7.4,3.1-10.8,9.8
		c-0.2,0.4-0.4,0.9-0.6,1.2C120.1,45,123,42,125,39.3z"/>
	<path class="st2" d="M167.8,28.3c0.9-0.1,1.4,0.9,1.1,2.4c-0.6,2.9-1.8,6.1-6.2,13.5c-4.8,8.1-9.9,13.6-14.7,13.5
		c-3.1-0.1-4.8-2.9-4.6-5.9c-2.3,2.9-5.3,5.8-8.7,5.6c-4.4-0.3-5.2-4.9-3.3-10.2c1.6-4.7,5.1-11.7,9.9-18.2c0.6-0.8,1.3-0.7,1.7-0.1
		c1.7,2.4,1.4,5.4-1.3,9.6c-2.6,4.1-4.4,7.4-5.8,10.8c-1.4,3.5-1.4,6,0.3,5.9c2.9-0.1,5.5-4.8,9.3-11c4.6-7.3,6.6-12.2,9-15.3
		c0.7-0.9,1.1-1.1,1.8-0.4c1,1.3,1.6,4.4-0.1,8c-1.6,3.2-5.1,8.6-6.9,12.4c-1.9,4.1-1.7,6.5,0.4,6.6c2.5,0.1,6.8-4.6,10.6-11.3
		C161.4,33.3,166.3,28.6,167.8,28.3z"/>
	<path class="st2" d="M177.4,32.6c0.4-2.8,1.1-4.1,2.6-5.5c1.6-1.4,3.2-1.7,3.8-1.1c0.7,0.7,0.4,1.5-0.6,3.1
		c-0.3,0.4-0.5,0.9-0.8,1.4c-0.5,6.6,0.9,12.1,0.6,17c-0.1,2.8-0.6,5.8-3.2,7.5c4.8-1.8,7.8-6.1,9.6-9.9c0.4-0.8,1.1-0.6,1.4,0
		c0.3,0.6,0.2,2.5-1,4.7c-2.7,4.9-7.6,7.6-12.6,7.8c-4.1,0.1-8.1-0.9-10.5-5.3c-1.7-3.2-1.5-7.9,0.9-9.9c0.9-0.7,1.4-0.4,1.5,0.7
		c0.1,0.6,0.1,1.1,0.1,1.7C172.1,40.9,175.3,36.3,177.4,32.6z M169.8,48.8c1.1,4.1,3.1,7.1,5.5,6.3c3.3-1,2.2-12.2,1.9-17.9
		C175.1,41,172.5,44.9,169.8,48.8z"/>
	<path class="st2" d="M199.2,51.7c0,0.8-0.1,1.6-0.1,2.4c2.7-1.8,5.6-5.3,7.4-9.1c0.4-0.9,1.1-0.9,1.5,0.1c0.4,1.1-0.1,2.6-0.7,4.3
		c-0.7,1.7-4.3,5.9-8.6,7.4c-1.1,7.2-4.3,15.1-7.7,19.4c-2.4,3-4.2,3.3-6.3,1.4c-1.8-1.5-3.9-4.3-3.1-10.3c2-15.9,18.4-43.2,26.3-55
		c0.6-0.9,1.5-0.8,1.8,0.1c0.9,2.4,0.6,5.5-2.4,10.7c-2.9,4.8-7.8,12.9-11.7,20.4C198.2,44.3,199.2,47,199.2,51.7z M185.4,74.9
		c1.6,2.1,6.9-7.8,9.3-17.5c-2.1-0.2-3.5-1.1-4.3-2.9C186.3,64,183.8,72.8,185.4,74.9z M195.7,50.2c0.1-2.6-0.6-4.8-1.1-4.6
		c-0.7,0.3-1.4,4.1-1.4,5.7c-0.1,2.3,0.6,3.8,1.9,4.1C195.5,53.6,195.7,51.8,195.7,50.2z"/>
	<path class="st2" d="M214,55.7c5.9,0.3,11.1-5.4,14.2-10.1c0.4-0.6,0.9-0.6,1.2,0.1c0.3,0.6,0.1,2.6-1.2,4.4c-3,4.3-8.5,7.6-14,7.7
		c-9.1,0.1-12.2-8.8-7.6-18c4.6-9.2,11.9-12.9,15.5-10.8c1.8,1.1,3.1,2.1,4.2,3.7c1.3,1.7,0.7,6.1-2.3,9.7
		c-3.5,4.3-8.3,6.1-13.3,2.1C208.5,51,210.2,55.4,214,55.7z M219.9,39.3c2.3-3,3.8-6.7,2.9-7.5c-1.5-1.2-7.4,3.1-10.8,9.8
		c-0.2,0.4-0.4,0.9-0.6,1.2C214.9,45,217.8,42,219.9,39.3z"/>
	<path class="st2" d="M236.8,55.7c5.9,0.3,11.1-5.4,14.2-10.1c0.4-0.6,0.9-0.6,1.2,0.1c0.3,0.6,0.1,2.6-1.2,4.4
		c-3,4.3-8.5,7.6-14,7.7c-9.1,0.1-12.2-8.8-7.6-18c4.6-9.2,11.9-12.9,15.5-10.8c1.8,1.1,3.1,2.1,4.2,3.7c1.3,1.7,0.7,6.1-2.3,9.7
		c-3.5,4.3-8.3,6.1-13.3,2.1C231.3,51,233,55.4,236.8,55.7z M242.7,39.3c2.3-3,3.8-6.7,2.9-7.5c-1.5-1.2-7.4,3.1-10.8,9.8
		c-0.2,0.4-0.4,0.9-0.6,1.2C237.7,45,240.6,42,242.7,39.3z"/>
	<path class="st2" d="M270,55.8c2.9-0.1,6.8-4.9,9.3-9.8c0.4-0.6,0.9-0.6,1.1-0.1c0.3,0.6,0.4,2.5-0.6,4.4
		c-1.9,3.9-6.3,7.7-10.3,7.5c-3.8-0.2-5.8-2.4-5.8-5.7c-2.3,2.9-5.5,5.5-8.8,5.5c-6.6,0-7.9-9.1-2.1-17.6
		c5.6-8.3,11.3-11.5,14.9-11.5c2.9,0,4.3,2.2,4.3,4.8c3.8-7.3,9.3-17,11.8-20.7c0.7-1,1.4-0.9,1.7,0c1,2.4,0.8,5.4-2.2,10.8
		c-3.4,6.1-10.3,17.9-13.8,25.4C267.7,53,267.6,55.9,270,55.8z M257.6,42.8c-3.8,6.1-4.6,12.3-1.9,12.4c2.9,0.1,6.7-4.1,10-10.6
		c4.1-7.9,5.2-12.4,3.1-12.5C266.7,32.1,261.5,36.6,257.6,42.8z"/>
</g>
</svg>
