<?xml version="1.0" encoding="utf-8"?>
<!-- Generator: Adobe Illustrator 22.1.0, SVG Export Plug-In . SVG Version: 6.00 Build 0)  -->
<svg version="1.0"
	 id="svg3070" inkscape:version="0.48.0 r9654" sodipodi:docname="New document 4" xmlns:cc="http://creativecommons.org/ns#" xmlns:dc="http://purl.org/dc/elements/1.1/" xmlns:inkscape="http://www.inkscape.org/namespaces/inkscape" xmlns:rdf="http://www.w3.org/1999/02/22-rdf-syntax-ns#" xmlns:sodipodi="http://sodipodi.sourceforge.net/DTD/sodipodi-0.dtd" xmlns:svg="http://www.w3.org/2000/svg"
	 xmlns="http://www.w3.org/2000/svg" xmlns:xlink="http://www.w3.org/1999/xlink" x="0px" y="0px" viewBox="0 0 291 79.5"
	 style="enable-background:new 0 0 291 79.5;" xml:space="preserve">
<style type="text/css">
	.st0{fill:#C422FF;}
	.st1{fill:#FFFFFF;}
	.st2{fill:#D3D3D3;}
</style>
<sodipodi:namedview  bordercolor="#666666" borderopacity="1.0" fit-margin-bottom="0" fit-margin-left="0" fit-margin-right="0" fit-margin-top="0" id="base" inkscape:current-layer="layer1" inkscape:cx="142.93233" inkscape:cy="33.703355" inkscape:document-units="px" inkscape:pageopacity="0.0" inkscape:pageshadow="2" inkscape:window-height="750" inkscape:window-maximized="1" inkscape:window-width="1280" inkscape:window-x="-8" inkscape:window-y="-8" inkscape:zoom="2.8" pagecolor="#ffffff" showgrid="false">
	</sodipodi:namedview>
<g id="layer1" transform="translate(-200.55198,-393.96227)" inkscape:groupmode="layer" inkscape:label="Layer 1">
	<g id="g3019" transform="matrix(1.018827,0,0,-1.018827,170.5996,498.03288)">
		<path id="path14" inkscape:connector-curvature="0" class="st0" d="M144.3,81.3c0,1.6,1.3,2.9,2.9,2.9h34c1.6,0,2.9-1.3,2.9-2.9
			V47c0-1.6-1.3-2.9-2.9-2.9h-34c-1.6,0-2.9,1.3-2.9,2.9V81.3z"/>
		<path id="path16" inkscape:connector-curvature="0" class="st0" d="M32.6,50.6h16.6v5.5H38.6v20.9h-6
			C32.6,76.9,32.6,50.6,32.6,50.6z"/>
		<path id="path18" inkscape:connector-curvature="0" class="st0" d="M57.7,50.6v18.1h-6V50.6H57.7z M54.7,71.2
			c2.1,0,3.4,1.4,3.4,3.1c0,1.8-1.3,3.1-3.4,3.1c-2.1,0-3.4-1.4-3.4-3.1C51.3,72.6,52.6,71.2,54.7,71.2L54.7,71.2L54.7,71.2z"/>
		<path id="path20" inkscape:connector-curvature="0" class="st0" d="M60.5,50.6h6v10.1c0,0.5,0,1.1,0.2,1.5
			c0.4,1.1,1.4,2.2,3.1,2.2c2.2,0,3.1-1.7,3.1-4.1v-9.7h6V61c0,5.6-3,8.2-6.9,8.2c-3.3,0-4.7-1.8-5.5-3.1h0v2.6h-6
			C60.6,67,60.5,50.6,60.5,50.6L60.5,50.6z"/>
		<path id="path22" inkscape:connector-curvature="0" class="st0" d="M87.4,76.9h-6V50.6h6v5.9l1.5,1.9l4.7-7.8h7.4l-7.9,11.3
			l6.9,7.7h-7.3c0,0-5-6.9-5.4-7.7L87.4,76.9L87.4,76.9z"/>
		<path id="path24" inkscape:connector-curvature="0" class="st0" d="M117.1,58.2c0.1,0.5,0.2,1.4,0.2,2.4c0,4.7-2.4,9.4-8.6,9.4
			c-6.7,0-9.8-5.3-9.8-10.1c0-5.9,3.8-9.7,10.3-9.7c2.6,0,5,0.4,7,1.2l-0.8,4c-1.6-0.5-3.3-0.8-5.4-0.8c-2.8,0-5.3,1.2-5.5,3.6
			L117.1,58.2L117.1,58.2z M104.6,62.2c0.2,1.5,1.2,3.8,3.8,3.8c2.7,0,3.4-2.4,3.4-3.8H104.6z"/>
		<path id="path26" inkscape:connector-curvature="0" class="st0" d="M132.2,76.9v-9.1h-0.1c-0.9,1.3-2.7,2.1-5.1,2.1
			c-4.6,0-8.7-3.7-8.7-10.1c0-5.9,3.7-9.7,8.3-9.7c2.5,0,4.9,1.1,6.1,3.2h0.1l0.2-2.7h5.4c-0.1,1.3-0.2,3.5-0.2,5.6v20.7H132.2
			L132.2,76.9z M132.2,59c0-0.5,0-0.9-0.1-1.3c-0.4-1.7-1.8-2.8-3.5-2.8c-2.5,0-4.1,2-4.1,5.2c0,3,1.4,5.4,4.2,5.4
			c1.9,0,3.2-1.3,3.5-2.9c0.1-0.3,0.1-0.7,0.1-1.1V59L132.2,59z"/>
		<path id="path28" inkscape:connector-curvature="0" class="st1" d="M156.4,50.6v18.1h-6V50.6H156.4z M153.4,71.2
			c2.1,0,3.4,1.4,3.4,3.1c0,1.8-1.3,3.1-3.4,3.1c-2.1,0-3.4-1.4-3.4-3.1C150,72.6,151.3,71.2,153.4,71.2L153.4,71.2L153.4,71.2z"/>
		<path id="path30" inkscape:connector-curvature="0" class="st1" d="M159.7,50.6h6v10.1c0,0.5,0,1.1,0.2,1.5
			c0.4,1.1,1.4,2.2,3.1,2.2c2.2,0,3.1-1.7,3.1-4.1v-9.7h6V61c0,5.6-3,8.2-6.9,8.2c-3.3,0-4.7-1.8-5.5-3.1h0v2.6h-6
			C159.8,67,159.7,50.6,159.7,50.6L159.7,50.6z"/>
	</g>
</g>
<g>
	<path class="st2" d="M177,35.1c1.4,0.2,2.8,2.3,1.7,4.6c-0.9,1.9-3,5.1-4,7.4c-1.1,2.5-0.9,4.5,0.7,4.5c1.8-0.1,3.9-2.9,5.5-6
		c0.2-0.4,0.5-0.4,0.7,0c0.3,0.5,0.2,1.5-0.4,2.7c-1.2,2.4-3.9,4.6-6.4,4.6c-3.7,0-4.5-2.7-3.3-6.4c1.4-4.2,5.2-8.8,4.5-9.2
		c-0.4-0.2-2.9,1-5.7,4.1c-2.6,2.8-4.5,6.9-6.3,11c-0.2,0.4-0.4,0.6-0.8,0.2c-0.9-0.9-1.1-2.3-0.4-4.5c0.9-2.7,4.2-8.7,6.9-12.8
		c0.3-0.5,0.6-0.4,0.9,0c0.6,1.1,0.6,2.6,0.1,4.1C172.7,37.2,175.6,34.9,177,35.1z"/>
	<path class="st2" d="M186.3,51.5c3.6,0.2,6.7-3.3,8.6-6.1c0.2-0.3,0.6-0.3,0.7,0c0.2,0.3,0,1.6-0.7,2.7c-1.8,2.6-5.1,4.6-8.5,4.7
		c-5.5,0.1-7.4-5.3-4.6-10.9c2.8-5.6,7.2-7.8,9.4-6.6c1.1,0.6,1.9,1.3,2.6,2.2c0.8,1,0.4,3.7-1.4,5.9c-2.1,2.6-5,3.7-8,1.3
		C183,48.6,184,51.3,186.3,51.5z M189.9,41.5c1.4-1.8,2.3-4.1,1.7-4.5c-0.9-0.7-4.5,1.9-6.5,6c-0.1,0.3-0.3,0.5-0.3,0.7
		C186.9,45,188.7,43.2,189.9,41.5z"/>
	<path class="st2" d="M215.9,34.9c0.6-0.1,0.8,0.6,0.6,1.5c-0.3,1.7-1.1,3.7-3.8,8.2c-2.9,4.9-6,8.3-8.9,8.2c-1.9,0-2.9-1.7-2.8-3.6
		c-1.4,1.8-3.2,3.5-5.3,3.4c-2.7-0.2-3.2-3-2-6.2c1-2.9,3.1-7.1,6-11c0.3-0.5,0.8-0.4,1,0c1,1.4,0.8,3.3-0.8,5.8
		c-1.6,2.5-2.7,4.5-3.5,6.6c-0.9,2.1-0.8,3.6,0.2,3.6c1.7,0,3.3-2.9,5.7-6.7c2.8-4.4,4-7.4,5.4-9.3c0.4-0.6,0.7-0.6,1.1-0.3
		c0.6,0.8,1,2.7-0.1,4.8c-1,1.9-3.1,5.2-4.2,7.5c-1.2,2.5-1,3.9,0.2,4c1.5,0,4.1-2.8,6.4-6.9C212,37.9,214.9,35,215.9,34.9z"/>
	<path class="st2" d="M221.6,37.5c0.2-1.7,0.6-2.5,1.6-3.3c1-0.9,1.9-1,2.3-0.6c0.4,0.4,0.2,0.9-0.3,1.9c-0.2,0.3-0.3,0.5-0.5,0.8
		c-0.3,4,0.5,7.4,0.4,10.3c-0.1,1.7-0.4,3.5-1.9,4.5c2.9-1.1,4.7-3.7,5.8-6c0.2-0.5,0.6-0.3,0.8,0c0.2,0.4,0.1,1.5-0.6,2.9
		c-1.6,3-4.6,4.6-7.7,4.8c-2.5,0.1-4.9-0.6-6.4-3.2c-1-1.9-0.9-4.8,0.6-6c0.5-0.4,0.9-0.3,0.9,0.4c0,0.3,0,0.7,0.1,1
		C218.4,42.5,220.4,39.7,221.6,37.5z M217.1,47.3c0.6,2.5,1.9,4.3,3.3,3.8c2-0.6,1.3-7.4,1.2-10.9C220.3,42.6,218.7,44.9,217.1,47.3
		z"/>
	<path class="st2" d="M234.9,49.1c0,0.5,0,1-0.1,1.5c1.6-1.1,3.4-3.2,4.5-5.5c0.3-0.5,0.7-0.6,0.9,0c0.2,0.6,0,1.6-0.4,2.6
		c-0.4,1-2.6,3.6-5.2,4.5c-0.7,4.4-2.6,9.2-4.7,11.8c-1.5,1.8-2.6,2-3.8,0.9c-1.1-0.9-2.4-2.6-1.9-6.3c1.2-9.6,11.2-26.2,16-33.4
		c0.3-0.5,0.9-0.5,1.1,0c0.5,1.5,0.4,3.3-1.5,6.5c-1.8,2.9-4.8,7.8-7.1,12.4C234.3,44.6,234.9,46.2,234.9,49.1z M226.5,63.1
		c1,1.3,4.2-4.7,5.6-10.6c-1.3-0.1-2.1-0.7-2.6-1.7C227.1,56.5,225.5,61.9,226.5,63.1z M232.8,48.1c0-1.6-0.4-2.9-0.7-2.8
		c-0.4,0.2-0.8,2.5-0.9,3.5c0,1.4,0.3,2.3,1.2,2.5C232.6,50.2,232.8,49.1,232.8,48.1z"/>
	<path class="st2" d="M243.9,51.5c3.6,0.2,6.7-3.3,8.6-6.1c0.2-0.3,0.6-0.3,0.7,0c0.2,0.3,0,1.6-0.7,2.7c-1.8,2.6-5.1,4.6-8.5,4.7
		c-5.5,0.1-7.4-5.3-4.6-10.9c2.8-5.6,7.2-7.8,9.4-6.6c1.1,0.6,1.9,1.3,2.6,2.2c0.8,1,0.4,3.7-1.4,5.9c-2.1,2.6-5,3.7-8,1.3
		C240.5,48.6,241.6,51.3,243.9,51.5z M247.5,41.5c1.4-1.8,2.3-4.1,1.7-4.5c-0.9-0.7-4.5,1.9-6.5,6c-0.1,0.3-0.3,0.5-0.3,0.7
		C244.4,45,246.2,43.2,247.5,41.5z"/>
	<path class="st2" d="M257.7,51.5c3.6,0.2,6.7-3.3,8.6-6.1c0.2-0.3,0.6-0.3,0.7,0c0.2,0.3,0,1.6-0.7,2.7c-1.8,2.6-5.1,4.6-8.5,4.7
		c-5.5,0.1-7.4-5.3-4.6-10.9c2.8-5.6,7.2-7.8,9.4-6.6c1.1,0.6,1.9,1.3,2.6,2.2c0.8,1,0.4,3.7-1.4,5.9c-2.1,2.6-5,3.7-8,1.3
		C254.4,48.6,255.4,51.3,257.7,51.5z M261.3,41.5c1.4-1.8,2.3-4.1,1.7-4.5c-0.9-0.7-4.5,1.9-6.5,6c-0.1,0.3-0.3,0.5-0.3,0.7
		C258.3,45,260,43.2,261.3,41.5z"/>
	<path class="st2" d="M277.9,51.5c1.8-0.1,4.1-3,5.6-6c0.2-0.4,0.5-0.4,0.7,0c0.2,0.4,0.2,1.5-0.3,2.7c-1.2,2.4-3.8,4.7-6.2,4.5
		c-2.3-0.1-3.5-1.4-3.5-3.5c-1.4,1.7-3.3,3.3-5.4,3.3c-4,0-4.8-5.5-1.3-10.7c3.4-5,6.9-7,9-7c1.8,0,2.6,1.3,2.6,2.9
		c2.3-4.5,5.6-10.3,7.2-12.5c0.4-0.6,0.8-0.6,1,0c0.6,1.4,0.5,3.3-1.3,6.5c-2.1,3.7-6.2,10.9-8.4,15.4
		C276.4,49.9,276.4,51.6,277.9,51.5z M270.3,43.7c-2.3,3.7-2.8,7.5-1.1,7.5c1.7,0,4.1-2.5,6.1-6.4c2.5-4.8,3.2-7.5,1.9-7.6
		C275.9,37.1,272.7,39.9,270.3,43.7z"/>
</g>
</svg>
