<?xml version="1.0" encoding="utf-8"?>
<!-- Generator: Adobe Illustrator 22.1.0, SVG Export Plug-In . SVG Version: 6.00 Build 0)  -->
<svg version="1.0" id="Layer_1" xmlns="http://www.w3.org/2000/svg" xmlns:xlink="http://www.w3.org/1999/xlink" x="0px" y="0px"
	 viewBox="0 0 534 110" style="enable-background:new 0 0 534 110;" xml:space="preserve">
<style type="text/css">
	.st0{fill:#C422FF;}
	.st1{fill:#FFFFFF;}
	.st2{fill:#D3D3D3;}
	.st3{font-family:'SignPainter-HouseScript';}
	.st4{font-size:80.6016px;}
</style>
<g id="layer1" transform="translate(-200.55198,-393.96227)" inkscape:groupmode="layer" inkscape:label="Layer 1">
	<g id="g3019" transform="matrix(1.018827,0,0,-1.018827,170.5996,498.03288)">
		<path id="path14" inkscape:connector-curvature="0" class="st0" d="M238.8,81.1c0,2.9,2.4,5.3,5.4,5.3h62.7c3,0,5.4-2.4,5.4-5.3
			V17.7c0-2.9-2.4-5.3-5.4-5.3h-62.7c-3,0-5.4,2.4-5.4,5.3V81.1z"/>
		<path id="path16" inkscape:connector-curvature="0" class="st0" d="M32.9,24.4h30.7v10.1H44v38.4H32.9
			C32.9,72.9,32.9,24.4,32.9,24.4z"/>
		<path id="path18" inkscape:connector-curvature="0" class="st0" d="M79.2,24.4v33.4H68.1V24.4H79.2z M73.6,62.4
			c3.9,0,6.3,2.6,6.3,5.8c-0.1,3.3-2.4,5.8-6.2,5.8c-3.8,0-6.3-2.5-6.3-5.8C67.4,65,69.8,62.4,73.6,62.4L73.6,62.4L73.6,62.4z"/>
		<path id="path20" inkscape:connector-curvature="0" class="st0" d="M84.3,24.4h11.1v18.7c0,1,0.1,2,0.4,2.7c0.8,2,2.6,4.1,5.7,4.1
			c4,0,5.6-3.1,5.6-7.6V24.4h11.1v19.2c0,10.3-5.5,15-12.8,15c-6,0-8.6-3.3-10.1-5.6h0.1v4.8H84.3C84.5,54.7,84.3,24.4,84.3,24.4
			L84.3,24.4z"/>
		<path id="path22" inkscape:connector-curvature="0" class="st0" d="M133.9,72.9h-11.1V24.4h11.1v10.8l2.8,3.5l8.7-14.3H159
			l-14.6,20.7l12.8,14.1h-13.4c0,0-9.1-12.6-9.9-14.1L133.9,72.9L133.9,72.9z"/>
		<path id="path24" inkscape:connector-curvature="0" class="st0" d="M188.7,38.4c0.1,0.9,0.4,2.5,0.4,4.4c0,8.6-4.4,17.4-15.9,17.4
			c-12.4,0-18.1-9.8-18.1-18.6c0-11,6.9-17.8,19.1-17.8c4.8,0,9.3,0.7,12.9,2.2l-1.5,7.3c-3-1-6.1-1.5-9.9-1.5
			c-5.2,0-9.7,2.1-10.1,6.7L188.7,38.4L188.7,38.4z M165.6,45.9c0.3,2.9,2.2,7.1,6.9,7.1c5,0,6.2-4.5,6.2-7.1H165.6z"/>
		<path id="path26" inkscape:connector-curvature="0" class="st0" d="M216.5,72.9V56.2h-0.1c-1.6,2.4-5,3.9-9.4,3.9
			c-8.6,0-16.1-6.8-16-18.5c0-10.8,6.8-17.9,15.3-17.9c4.6,0,9,2,11.2,5.8h0.2l0.4-5.1h9.9c-0.1,2.4-0.3,6.4-0.3,10.4v38.1H216.5
			L216.5,72.9z M216.5,39.9c0-0.9-0.1-1.7-0.2-2.4c-0.7-3.1-3.3-5.2-6.5-5.2c-4.6,0-7.6,3.7-7.6,9.6c0,5.5,2.6,9.9,7.7,9.9
			c3.4,0,5.8-2.4,6.5-5.3c0.1-0.6,0.1-1.4,0.1-2L216.5,39.9L216.5,39.9z"/>
		<path id="path28" inkscape:connector-curvature="0" class="st1" d="M261.1,24.5v33.4H250V24.5H261.1z M255.5,62.5
			c3.9,0,6.3,2.6,6.3,5.8c-0.1,3.3-2.4,5.8-6.2,5.8c-3.8,0-6.3-2.5-6.3-5.8C249.3,65,251.7,62.5,255.5,62.5L255.5,62.5L255.5,62.5z"
			/>
		<path id="path30" inkscape:connector-curvature="0" class="st1" d="M267.2,24.5h11.1v18.7c0,1,0.1,2,0.4,2.7
			c0.8,2,2.6,4.1,5.7,4.1c4,0,5.6-3.1,5.6-7.6V24.5h11.1v19.2c0,10.3-5.5,15-12.8,15c-6,0-8.6-3.3-10.1-5.6h0.1v4.8h-11.1
			C267.4,54.8,267.2,24.5,267.2,24.5L267.2,24.5z"/>
	</g>
</g>
<text transform="matrix(1 0 0 1 300.333 77.4756)" class="st2 st3 st4">newsfeed</text>
</svg>
